<svg xmlns="http://www.w3.org/2000/svg" xmlns:xlink="http://www.w3.org/1999/xlink" version="1.1" x="0px" y="0px" viewBox="0 0 98 122.5" style="enable-background:new 0 0 98 98;" xml:space="preserve"><path d="M89.575,6.339H8.425c-3.039,0-5.511,2.472-5.511,5.511v56.051c0,3.039,2.472,5.512,5.511,5.512h28.607l-4.673,9.503h-6.176  c-2.411,0-4.373,1.962-4.373,4.373c0,2.411,1.962,4.373,4.373,4.373h45.635c2.411,0,4.373-1.962,4.373-4.373  c0-2.411-1.962-4.373-4.373-4.373h-6.176l-4.673-9.503h28.607c3.039,0,5.512-2.472,5.512-5.512V11.85  C95.087,8.811,92.614,6.339,89.575,6.339z M73.479,87.288c0,0.916-0.745,1.662-1.662,1.662H26.183c-0.916,0-1.662-0.745-1.662-1.662  c0-0.916,0.745-1.662,1.662-1.662h45.635C72.734,85.626,73.479,86.372,73.479,87.288z M62.62,82.915H35.38l4.673-9.503h17.895  L62.62,82.915z M92.376,67.901c0,1.544-1.256,2.801-2.801,2.801H8.425c-1.544,0-2.8-1.256-2.8-2.801V11.85  c0-1.544,1.256-2.8,2.8-2.8h81.151c1.544,0,2.801,1.256,2.801,2.8V67.901z M88.254,11.816H9.746c-0.749,0-1.355,0.607-1.355,1.355  V66.58c0,0.749,0.607,1.355,1.355,1.355h78.508c0.749,0,1.355-0.607,1.355-1.355V13.172C89.609,12.423,89.003,11.816,88.254,11.816z   M86.898,65.224H11.101V14.527h75.797V65.224z M15.062,58.422h40.129c0.749,0,1.355-0.607,1.355-1.355V30.839  c0-0.156-0.027-0.312-0.08-0.459l-2.934-8.155c-0.194-0.538-0.704-0.897-1.275-0.897H17.996c-0.572,0-1.082,0.359-1.275,0.897  l-2.934,8.155c-0.053,0.147-0.08,0.302-0.08,0.459v26.227C13.707,57.815,14.314,58.422,15.062,58.422z M16.418,55.711V32.195h12.32  v5.988c0,0.495,0.27,0.951,0.704,1.189c0.434,0.238,0.963,0.22,1.381-0.046l4.305-2.745l4.305,2.745  c0.222,0.141,0.475,0.213,0.729,0.213c0.224,0,0.448-0.055,0.652-0.167c0.434-0.238,0.704-0.694,0.704-1.189v-5.988h12.32v23.516  H16.418z M38.805,32.195v3.516l-2.949-1.88c-0.445-0.283-1.013-0.283-1.458,0l-2.949,1.88v-3.516H38.805z M18.949,24.04h32.355  l1.958,5.444H16.991L18.949,24.04z M29.404,45.655h-8.114c-0.749,0-1.355,0.607-1.355,1.355v4.911c0,0.749,0.607,1.355,1.355,1.355  h8.114c0.749,0,1.355-0.607,1.355-1.355v-4.911C30.76,46.262,30.153,45.655,29.404,45.655z M28.049,50.566h-5.403v-2.2h5.403V50.566  z M65.152,32.426c0-0.749,0.607-1.355,1.355-1.355h16.485c0.749,0,1.355,0.607,1.355,1.355s-0.607,1.355-1.355,1.355H66.507  C65.759,33.781,65.152,33.174,65.152,32.426z M65.152,39.876c0-0.749,0.607-1.355,1.355-1.355h16.485  c0.749,0,1.355,0.607,1.355,1.355s-0.607,1.355-1.355,1.355H66.507C65.759,41.231,65.152,40.624,65.152,39.876z M65.152,47.326  c0-0.749,0.607-1.355,1.355-1.355h16.485c0.749,0,1.355,0.607,1.355,1.355c0,0.749-0.607,1.355-1.355,1.355H66.507  C65.759,48.681,65.152,48.075,65.152,47.326z M65.152,24.975c0-0.749,0.607-1.355,1.355-1.355h16.485  c0.749,0,1.355,0.607,1.355,1.355s-0.607,1.355-1.355,1.355H66.507C65.759,26.331,65.152,25.724,65.152,24.975z M59.097,47.326  c0-0.749,0.607-1.355,1.355-1.355h1.993c0.749,0,1.355,0.607,1.355,1.355c0,0.749-0.607,1.355-1.355,1.355h-1.993  C59.704,48.681,59.097,48.075,59.097,47.326z M59.097,39.876c0-0.749,0.607-1.355,1.355-1.355h1.993  c0.749,0,1.355,0.607,1.355,1.355s-0.607,1.355-1.355,1.355h-1.993C59.704,41.231,59.097,40.624,59.097,39.876z M59.097,54.776  c0-0.749,0.607-1.355,1.355-1.355h1.993c0.749,0,1.355,0.607,1.355,1.355s-0.607,1.355-1.355,1.355h-1.993  C59.704,56.132,59.097,55.525,59.097,54.776z M59.097,24.975c0-0.749,0.607-1.355,1.355-1.355h1.993  c0.749,0,1.355,0.607,1.355,1.355s-0.607,1.355-1.355,1.355h-1.993C59.704,26.331,59.097,25.724,59.097,24.975z M65.152,54.776  c0-0.749,0.607-1.355,1.355-1.355h16.485c0.749,0,1.355,0.607,1.355,1.355s-0.607,1.355-1.355,1.355H66.507  C65.759,56.132,65.152,55.525,65.152,54.776z M59.097,32.426c0-0.749,0.607-1.355,1.355-1.355h1.993  c0.749,0,1.355,0.607,1.355,1.355s-0.607,1.355-1.355,1.355h-1.993C59.704,33.781,59.097,33.174,59.097,32.426z"/><text x="0" y="113" fill="#000000" font-size="5px" font-weight="bold" font-family="'Helvetica Neue', Helvetica, Arial-Unicode, Arial, Sans-serif">Created by SITI NURHAYATI</text><text x="0" y="118" fill="#000000" font-size="5px" font-weight="bold" font-family="'Helvetica Neue', Helvetica, Arial-Unicode, Arial, Sans-serif">from the Noun Project</text></svg>